# xmcd CD database file
#
# Track frame offsets:
#	150
#	22075
#	58697
#	90182
#	127642
#	156402
#	192292
#	225182
#	260050
#	286090
#
# Disc length: 3934 seconds
#
# Revision: 0
# Processed by: cddbd v1.5.2PL0 Copyright (c) Steve Scherf et al.
# Submitted via: CDex 1.70beta2
#
DISCID=780f5c0a
DTITLE=Sylvain Gagnon Quartet - Readers Of The Lost Chart
DYEAR=1900
DGENRE=Jazz
TTITLE0=Notre-Dame En Fete
TTITLE1=0dyssee
TTITLE2=Silent Tide
TTITLE3=Esmeralda
TTITLE4=Quasimodo
TTITLE5=Autumn Leaves
TTITLE6=Togo
TTITLE7=Is It Or Isn't It?
TTITLE8=Enleve Ta Blues-Take-Off Your Blues
TTITLE9=Confirmation
EXTD=
EXTT0=
EXTT1=
EXTT2=
EXTT3=
EXTT4=
EXTT5=
EXTT6=
EXTT7=
EXTT8=
EXTT9=
PLAYORDER=
